mtllib materials.mtl
v 0.16 -0.05128551 0
v 0.138564 -0.05128551 -0.07999998
v 0.1385641 -0.06995225 -0.07999992
v 0.16 -0.06995237 1.341105E-07
v 0.07999995 -0.05128551 -0.1385641
v 0.07999992 -0.06995225 -0.1385641
v -5.960464E-08 -0.05128562 -0.1599999
v -1.490116E-07 -0.06995225 -0.16
v -0.08000004 -0.05128562 -0.138564
v -0.08000016 -0.06995237 -0.1385641
v -0.1385641 -0.05128562 -0.07999998
v -0.1385642 -0.06995237 -0.08000009
v -0.16 -0.05128562 5.960464E-08
v -0.1600001 -0.06995237 -2.980232E-08
v -0.1385641 -0.05128562 0.08000005
v -0.1385641 -0.06995237 0.08000001
v -0.07999998 -0.05128562 0.1385641
v -0.07999992 -0.06995237 0.1385641
v 0 -0.05128562 0.16
v 8.940697E-08 -0.06995237 0.1600001
v 0.07999998 -0.05128551 0.1385641
v 0.0800001 -0.06995237 0.1385642
v 0.1385641 -0.05128551 0.07999999
v 0.1385642 -0.06995237 0.08000007
v 0.1299039 -0.0642854 -0.07500008
v 0.07500005 -0.06428552 -0.1299039
v 0.06750005 -0.1542854 -0.1169136
v 0.1169136 -0.1542854 -0.06750017
v 0.15 -0.0642854 -1.043081E-07
v 0.1299039 -0.0642854 0.0749999
v 0.07500002 -0.0642854 0.1299037
v 2.980232E-08 -0.0642854 0.1499999
v -0.07499999 -0.0642854 0.1299037
v -0.1299038 -0.06428552 0.07499994
v -0.15 -0.06428552 -8.940697E-08
v -0.1299037 -0.06428552 -0.07500011
v -0.07499993 -0.06428552 -0.1299039
v 5.960464E-08 -0.06428552 -0.1500001
v 8.940697E-08 -0.1542854 -0.1350002
v -0.06749994 -0.1542854 -0.1169136
v -0.1169134 -0.1542854 -0.06750017
v -0.135 -0.1542854 -1.341105E-07
v -0.1169134 -0.1542854 0.06749991
v -0.0675 -0.1542854 0.1169133
v 2.980232E-08 -0.1542854 0.1349999
v 0.06750003 -0.1542854 0.1169133
v 0.1169136 -0.1542854 0.06749988
v 0.1350001 -0.1542854 -1.639128E-07
v 0.05467504 -0.2142854 -0.09469983
v 0.09470004 -0.2142854 -0.05467492
v 8.940697E-08 -0.2142854 -0.1093499
v -0.05467492 -0.2142854 -0.09469984
v -0.09469986 -0.2142854 -0.05467489
v -0.10935 -0.2142854 1.490116E-07
v -0.09469989 -0.2142854 0.05467518
v -0.05467492 -0.2142854 0.09470007
v 2.980232E-08 -0.2142854 0.1093502
v 0.0546751 -0.2142854 0.09470008
v 0.09470004 -0.2142854 0.05467517
v 0.1093501 -0.2142854 8.940697E-08
v 0.05467504 -0.1942853 -0.09469992
v 0.09470004 -0.1942853 -0.05467501
v 1.192093E-07 -0.1942853 -0.10935
v -0.05467495 -0.1942853 -0.09469992
v -0.09469986 -0.1942853 -0.05467495
v -0.10935 -0.1942853 8.940697E-08
v -0.09469992 -0.1942853 0.05467513
v -0.05467492 -0.1942853 0.09470003
v 0 -0.1942853 0.1093502
v 0.05467513 -0.1942853 0.09470005
v 0.09470004 -0.1942853 0.05467513
v 0.1093501 -0.1942853 2.980232E-08
v 0.05467504 -0.2042851 -0.09469998
v 0.09470004 -0.2042851 -0.05467506
v 1.192093E-07 -0.2042851 -0.1093501
v -0.05467495 -0.2042851 -0.09469998
v -0.09469986 -0.2042851 -0.054675
v -0.10935 -0.2042851 5.960464E-08
v -0.09469992 -0.2042851 0.05467512
v -0.05467492 -0.2042851 0.09470003
v 0 -0.2042851 0.1093502
v 0.05467513 -0.2042851 0.09470004
v 0.09470001 -0.2042851 0.05467512
v 0.1093501 -0.2042851 0
v 0.1299037 0.06571448 0.07500003
v 0.0749999 0.06571448 0.1299039
v 0.06749988 0.1557144 0.1169136
v 0.1169134 0.1557144 0.06750012
v 0.1499999 0.06571448 5.960464E-08
v 0.1299037 0.06571436 -0.07499994
v 0.07499987 0.06571436 -0.1299038
v -1.490116E-07 0.06571436 -0.1499999
v -0.07500014 0.06571436 -0.1299037
v -0.1299039 0.06571448 -0.07499991
v -0.1500001 0.06571448 1.043081E-07
v -0.1299039 0.06571448 0.07500013
v -0.07500008 0.06571448 0.1299039
v -8.940697E-08 0.06571448 0.1500001
v -8.940697E-08 0.1557144 0.1350002
v -0.06750011 0.1557144 0.1169136
v -0.1169136 0.1557144 0.06750018
v -0.1350002 0.1557144 1.341105E-07
v -0.1169136 0.1557144 -0.06749991
v -0.06750017 0.1557144 -0.1169133
v -1.490116E-07 0.1557144 -0.1349999
v 0.06749988 0.1557144 -0.1169134
v 0.1169134 0.1557144 -0.06749994
v 0.1349999 0.1557144 1.043081E-07
v 0.05467486 0.2157143 0.09469981
v 0.09469986 0.2157143 0.05467489
v -8.940697E-08 0.2157143 0.1093499
v -0.05467516 0.2157143 0.09469984
v -0.09470007 0.2157143 0.05467489
v -0.1093502 0.2157143 -1.490116E-07
v -0.0947001 0.2157143 -0.05467521
v -0.05467516 0.2157143 -0.09470013
v -1.490116E-07 0.2157143 -0.1093502
v 0.05467492 0.2157143 -0.09470016
v 0.09469986 0.2157143 -0.05467524
v 0.10935 0.2157143 -1.490116E-07
v 0.05467483 0.2057145 0.09469992
v 0.0946998 0.2057145 0.05467498
v -8.940697E-08 0.2057145 0.10935
v -0.05467513 0.2057145 0.09469995
v -0.0947001 0.2057145 0.05467498
v -0.1093503 0.2057145 -7.450581E-08
v -0.09470013 0.2057145 -0.05467515
v -0.05467513 0.2057145 -0.09470007
v -1.490116E-07 0.2057145 -0.1093502
v 0.05467489 0.2057145 -0.09470013
v 0.09469986 0.2057145 -0.05467518
v 0.10935 0.2057145 -7.450581E-08
v 2.980232E-08 0.06571436 -0.15
v -0.07499999 0.06571436 -0.1299038
v -0.07499999 -0.06428564 -0.1299038
v 2.980232E-08 -0.06428564 -0.15
v -0.1299038 0.06571436 -0.07500002
v -0.1299038 -0.06428564 -0.07499996
v -0.1499999 0.06571436 -1.490116E-08
v -0.15 -0.06428564 2.980232E-08
v -0.1299038 0.06571436 0.07499998
v -0.1299038 -0.06428564 0.07500003
v -0.07499999 0.06571436 0.1299038
v -0.07499999 -0.06428564 0.1299038
v 2.980232E-08 0.06571436 0.15
v 2.980232E-08 -0.06428564 0.15
v 0.07500005 0.06571436 0.1299037
v 0.07500005 -0.06428564 0.1299038
v 0.1299038 0.06571436 0.07499996
v 0.1299038 -0.06428564 0.075
v 0.15 0.06571436 -2.980232E-08
v 0.15 -0.06428564 1.490116E-08
v 0.1299038 0.06571436 -0.07500002
v 0.1299038 -0.06428564 -0.07499996
v 0.07499999 0.06571436 -0.1299039
v 0.07499999 -0.06428564 -0.1299038
v 0.16 0.07004774 -1.490116E-08
v 0.138564 0.07004774 -0.08000001
v 0.1385641 0.05138099 -0.07999995
v 0.16 0.05138087 1.192093E-07
v 0.07999995 0.07004774 -0.1385641
v 0.07999992 0.05138099 -0.1385641
v -5.960464E-08 0.07004762 -0.16
v -1.490116E-07 0.05138099 -0.1600001
v -0.08000004 0.07004762 -0.138564
v -0.08000016 0.05138099 -0.1385641
v -0.1385641 0.07004762 -0.08000001
v -0.1385642 0.05138087 -0.0800001
v -0.16 0.07004762 4.470348E-08
v -0.1600001 0.05138087 -4.470348E-08
v -0.1385641 0.07004762 0.08000004
v -0.1385641 0.05138087 0.07999999
v -0.07999998 0.07004762 0.1385641
v -0.07999992 0.05138087 0.1385641
v 0 0.07004762 0.16
v 8.940697E-08 0.05138087 0.1600001
v 0.07999998 0.07004774 0.1385641
v 0.0800001 0.05138087 0.1385642
v 0.1385641 0.07004774 0.07999998
v 0.1385642 0.05138087 0.08000006
v 0.1399998 0.1702144 -1.490116E-08
v 0.1212434 0.1702144 -0.06999996
v 0.1212434 0.1538811 -0.06999993
v 0.1399999 0.153881 1.043081E-07
v 0.06999987 0.1702144 -0.1212435
v 0.06999981 0.1538811 -0.1212435
v -1.192093E-07 0.1702144 -0.1399999
v -1.788139E-07 0.1538811 -0.14
v -0.07000005 0.1702144 -0.1212435
v -0.0700002 0.1538811 -0.1212436
v -0.1212436 0.1702143 -0.06999996
v -0.1212437 0.1538811 -0.07000008
v -0.14 0.1702143 4.470348E-08
v -0.1400001 0.153881 -4.470348E-08
v -0.1212436 0.1702143 0.07
v -0.1212436 0.153881 0.06999996
v -0.07000002 0.1702144 0.1212435
v -0.06999999 0.153881 0.1212435
v -5.960464E-08 0.1702144 0.1399999
v 2.980232E-08 0.153881 0.14
v 0.0699999 0.1702144 0.1212435
v 0.06999999 0.153881 0.1212436
v 0.1212435 0.1702144 0.06999995
v 0.1212436 0.153881 0.07000002
v 0.1399999 -0.1561191 -5.960464E-08
v 0.1212434 -0.1561191 -0.07000002
v 0.1212435 -0.1724524 -0.06999998
v 0.14 -0.1724526 5.960464E-08
v 0.06999993 -0.1561191 -0.1212435
v 0.06999987 -0.1724524 -0.1212436
v -5.960464E-08 -0.1561191 -0.14
v -1.192093E-07 -0.1724524 -0.14
v -0.06999999 -0.1561191 -0.1212435
v -0.07000014 -0.1724524 -0.1212436
v -0.1212435 -0.1561192 -0.07000002
v -0.1212436 -0.1724524 -0.07000013
v -0.14 -0.1561192 0
v -0.14 -0.1724526 -8.940697E-08
v -0.1212435 -0.1561192 0.06999996
v -0.1212435 -0.1724526 0.06999991
v -0.06999996 -0.1561192 0.1212435
v -0.06999993 -0.1724526 0.1212435
v 0 -0.1561191 0.1399999
v 8.940697E-08 -0.1724526 0.14
v 0.06999996 -0.1561191 0.1212435
v 0.07000005 -0.1724526 0.1212435
v 0.1212435 -0.1561191 0.0699999
v 0.1212436 -0.1724526 0.06999997
vn 0.9659258 3.550099E-07 -0.2588195
vn 0.7071069 2.001292E-07 -0.7071069
vn 0.2588189 1.273542E-07 -0.9659259
vn -0.2588191 4.820548E-09 -0.9659259
vn -0.7071066 -3.529418E-07 -0.7071071
vn -0.9659261 -2.571233E-07 -0.2588189
vn -0.9659259 -2.128213E-07 0.2588194
vn -0.7071067 -1.206457E-07 0.7071069
vn -0.2588189 -3.475055E-09 0.9659259
vn 0.2588192 2.230593E-07 0.9659259
vn 0.7071068 1.375305E-07 0.7071069
vn 0.965926 2.820953E-07 0.2588188
vn -2.685265E-07 1 -1.421085E-14
vn 2.685265E-07 -1 1.421085E-14
vn 0.6981185 -0.1589406 -0.6981182
vn -2.960391E-07 1 -3.834619E-07
vn 0.2555291 -0.1589403 -0.9536473
vn -0.2555288 -0.1589402 -0.9536473
vn -0.6981182 -0.1589401 -0.6981182
vn -0.9536471 -0.1589409 -0.2555292
vn -0.9536472 -0.1589409 0.2555294
vn -0.6981182 -0.1589413 0.6981183
vn -0.2555291 -0.1589413 0.9536471
vn 0.2555288 -0.1589414 0.9536471
vn 0.6981182 -0.1589407 0.6981182
vn 0.9536471 -0.1589409 0.255529
vn 0.9536473 -0.1589406 -0.255529
vn 0.6535759 -0.3816757 -0.6535768
vn 0.2392255 -0.3816767 -0.8928015
vn -0.2392247 -0.3816766 -0.8928015
vn -0.653576 -0.3816763 -0.6535761
vn -0.8928022 -0.3816748 -0.2392251
vn -0.8928031 -0.3816726 0.2392258
vn -0.6535774 -0.3816712 0.653578
vn -0.2392262 -0.38167 0.8928041
vn 0.2392257 -0.3816699 0.8928042
vn 0.6535774 -0.3816705 0.653578
vn 0.8928033 -0.3816725 0.239225
vn 0.8928026 -0.3816742 -0.2392251
vn -0.7071061 3.238071E-06 0.7071079
vn -0.2588193 4.441321E-06 0.9659259
vn 0.2588183 3.695012E-06 0.9659261
vn 0.7071072 2.736182E-06 0.7071063
vn 0.9659258 1.444804E-06 0.2588193
vn 0.965926 8.614549E-07 -0.2588189
vn 0.7071063 -1.193859E-06 -0.7071076
vn 0.2588196 -1.152618E-06 -0.9659258
vn -0.2588184 -1.181836E-06 -0.9659261
vn -0.7071066 -6.482809E-07 -0.7071069
vn -0.9659263 -8.774629E-07 -0.2588173
vn -0.9659263 9.386622E-07 0.2588178
vn 0.7071062 3.866039E-06 -0.7071077
vn 0.2588194 6.093544E-06 -0.9659259
vn -0.2588183 5.570989E-06 -0.9659261
vn -0.7071074 3.445086E-06 -0.7071061
vn -0.9659258 7.615839E-07 -0.2588196
vn -0.9659261 -5.159535E-07 0.2588186
vn -0.7071061 6.936476E-08 0.7071078
vn -0.2588198 -2.918234E-07 0.9659258
vn 0.2588184 -8.342391E-08 0.9659261
vn 0.7071069 -4.695123E-07 0.7071066
vn 0.9659263 -6.84181E-07 0.2588173
vn 0.9659263 9.991222E-07 -0.2588178
vn 2.960391E-07 -1 3.834619E-07
vn 0.6981184 0.1589408 0.698118
vn -1.509958E-07 -1 5.324736E-07
vn 0.2555291 0.1589404 0.9536472
vn -0.2555288 0.1589403 0.9536473
vn -0.6981182 0.1589401 0.6981183
vn -0.9536471 0.1589408 0.2555294
vn -0.9536472 0.1589407 -0.2555292
vn -0.6981182 0.158941 -0.6981182
vn -0.2555292 0.1589411 -0.9536471
vn 0.2555287 0.1589412 -0.9536472
vn 0.6981181 0.1589407 -0.6981183
vn 0.9536471 0.1589409 -0.2555293
vn 0.9536473 0.1589408 0.2555287
vn 0.6535758 0.3816758 0.6535766
vn 0.2392254 0.3816768 0.8928013
vn -0.2392248 0.3816766 0.8928015
vn -0.6535761 0.3816762 0.6535761
vn -0.8928023 0.3816746 0.2392253
vn -0.8928032 0.3816723 -0.2392257
vn -0.6535775 0.3816709 -0.6535779
vn -0.2392263 0.3816697 -0.8928041
vn 0.2392257 0.3816697 -0.8928043
vn 0.6535774 0.3816704 -0.6535782
vn 0.8928032 0.3816725 -0.2392253
vn 0.8928025 0.3816743 0.2392249
vn -0.7071065 -4.818805E-06 -0.7071072
vn -0.2588194 -1.052722E-05 -0.9659259
vn 0.2588184 -1.115589E-05 -0.9659261
vn 0.7071071 -7.871829E-06 -0.7071066
vn 0.9659258 -6.636497E-06 -0.2588195
vn 0.965926 -2.328738E-06 0.2588189
vn 0.7071065 3.545684E-06 0.7071072
vn 0.2588189 5.35817E-06 0.9659259
vn -0.2588179 4.926073E-06 0.9659262
vn -0.7071067 3.357512E-06 0.707107
vn -0.9659262 1.545649E-06 0.2588183
vn -0.9659259 9.398448E-07 -0.2588192
vn 1.509958E-07 1 -5.324736E-07
vn -0.2588193 -2.134707E-07 -0.9659257
vn -0.7071067 -1.707743E-07 -0.7071069
vn -0.9659258 5.34115E-08 -0.258819
vn -0.9659258 2.476513E-07 0.258819
vn -0.7071071 1.41596E-07 0.7071065
vn -0.258819 3.566109E-07 0.9659259
vn 0.2588193 3.556594E-07 0.9659258
vn 0.7071068 2.502577E-07 0.7071067
vn 0.9659258 7.046771E-08 0.258819
vn 0.9659259 -1.977142E-08 -0.258819
vn 0.7071069 -3.570074E-07 -0.7071066
vn 0.2588189 -3.316389E-07 -0.9659259
vn 8.742283E-08 1 -3.43433E-07
vn -8.742283E-08 -1 3.43433E-07
vn 0.9659258 3.550099E-07 -0.2588195
vn 0.7071069 2.001292E-07 -0.7071069
vn 0.2588189 1.273542E-07 -0.9659259
vn -0.2588191 4.820548E-09 -0.9659259
vn -0.7071066 -3.529418E-07 -0.7071071
vn -0.9659261 -2.571233E-07 -0.2588189
vn -0.9659259 -2.128213E-07 0.2588194
vn -0.7071067 -1.206457E-07 0.7071069
vn -0.2588189 -3.475055E-09 0.9659259
vn 0.2588192 2.230593E-07 0.9659259
vn 0.7071068 1.375305E-07 0.7071069
vn 0.965926 2.820953E-07 0.2588188
vn -2.685265E-07 1 -1.421085E-14
vn 2.685265E-07 -1 1.421085E-14
vn 0.9659258 3.550099E-07 -0.2588195
vn 0.7071069 2.001292E-07 -0.7071069
vn 0.2588189 1.273542E-07 -0.9659259
vn -0.2588191 4.820548E-09 -0.9659259
vn -0.7071066 -3.529418E-07 -0.7071071
vn -0.9659261 -2.571233E-07 -0.2588189
vn -0.9659259 -2.128213E-07 0.2588194
vn -0.7071067 -1.206457E-07 0.7071069
vn -0.2588189 -3.475055E-09 0.9659259
vn 0.2588192 2.230593E-07 0.9659259
vn 0.7071068 1.375305E-07 0.7071069
vn 0.965926 2.820953E-07 0.2588188
vn -2.685265E-07 1 -1.421085E-14
vn 2.685265E-07 -1 1.421085E-14
vn 0.9659258 4.002634E-07 -0.2588195
vn 0.7071069 3.237637E-07 -0.7071069
vn 0.2588189 2.962421E-07 -0.9659259
vn -0.2588191 1.737084E-07 -0.9659259
vn -0.7071066 -2.293073E-07 -0.7071071
vn -0.9659261 -2.1187E-07 -0.2588189
vn -0.9659259 -2.580748E-07 0.2588194
vn -0.7071067 -2.442802E-07 0.7071069
vn -0.2588189 -1.723629E-07 0.9659259
vn 0.2588192 5.417147E-08 0.9659259
vn 0.7071068 1.389601E-08 0.7071069
vn 0.965926 2.36842E-07 0.2588188
vn -2.685265E-07 1 1.748456E-07
vn 2.685265E-07 -1 -1.748456E-07
usemtl mat22
f 4//1 3//1 2//1 1//1
f 3//2 6//2 5//2 2//2
f 6//3 8//3 7//3 5//3
f 8//4 10//4 9//4 7//4
f 10//5 12//5 11//5 9//5
f 12//6 14//6 13//6 11//6
f 14//7 16//7 15//7 13//7
f 16//8 18//8 17//8 15//8
f 18//9 20//9 19//9 17//9
f 20//10 22//10 21//10 19//10
f 22//11 24//11 23//11 21//11
f 24//12 4//12 1//12 23//12
f 1//13 2//13 5//13 7//13 9//13 11//13 13//13 15//13 17//13 19//13 21//13 23//13
f 24//14 22//14 20//14 18//14 16//14 14//14 12//14 10//14 8//14 6//14 3//14 4//14
f 160//117 159//117 158//117 157//117
f 159//118 162//118 161//118 158//118
f 162//119 164//119 163//119 161//119
f 164//120 166//120 165//120 163//120
f 166//121 168//121 167//121 165//121
f 168//122 170//122 169//122 167//122
f 170//123 172//123 171//123 169//123
f 172//124 174//124 173//124 171//124
f 174//125 176//125 175//125 173//125
f 176//126 178//126 177//126 175//126
f 178//127 180//127 179//127 177//127
f 180//128 160//128 157//128 179//128
f 157//129 158//129 161//129 163//129 165//129 167//129 169//129 171//129 173//129 175//129 177//129 179//129
f 180//130 178//130 176//130 174//130 172//130 170//130 168//130 166//130 164//130 162//130 159//130 160//130
f 184//131 183//131 182//131 181//131
f 183//132 186//132 185//132 182//132
f 186//133 188//133 187//133 185//133
f 188//134 190//134 189//134 187//134
f 190//135 192//135 191//135 189//135
f 192//136 194//136 193//136 191//136
f 194//137 196//137 195//137 193//137
f 196//138 198//138 197//138 195//138
f 198//139 200//139 199//139 197//139
f 200//140 202//140 201//140 199//140
f 202//141 204//141 203//141 201//141
f 204//142 184//142 181//142 203//142
f 181//143 182//143 185//143 187//143 189//143 191//143 193//143 195//143 197//143 199//143 201//143 203//143
f 204//144 202//144 200//144 198//144 196//144 194//144 192//144 190//144 188//144 186//144 183//144 184//144
f 208//145 207//145 206//145 205//145
f 207//146 210//146 209//146 206//146
f 210//147 212//147 211//147 209//147
f 212//148 214//148 213//148 211//148
f 214//149 216//149 215//149 213//149
f 216//150 218//150 217//150 215//150
f 218//151 220//151 219//151 217//151
f 220//152 222//152 221//152 219//152
f 222//153 224//153 223//153 221//153
f 224//154 226//154 225//154 223//154
f 226//155 228//155 227//155 225//155
f 228//156 208//156 205//156 227//156
f 205//157 206//157 209//157 211//157 213//157 215//157 217//157 219//157 221//157 223//157 225//157 227//157
f 228//158 226//158 224//158 222//158 220//158 218//158 216//158 214//158 212//158 210//158 207//158 208//158
usemtl mat20
f 28//15 27//15 26//15 25//15
f 25//16 26//16 38//16 37//16 36//16 35//16 34//16 33//16 32//16 31//16 30//16 29//16
f 27//17 39//17 38//17 26//17
f 39//18 40//18 37//18 38//18
f 40//19 41//19 36//19 37//19
f 41//20 42//20 35//20 36//20
f 42//21 43//21 34//21 35//21
f 43//22 44//22 33//22 34//22
f 44//23 45//23 32//23 33//23
f 45//24 46//24 31//24 32//24
f 46//25 47//25 30//25 31//25
f 47//26 48//26 29//26 30//26
f 48//27 28//27 25//27 29//27
f 50//28 49//28 27//28 28//28
f 49//29 51//29 39//29 27//29
f 51//30 52//30 40//30 39//30
f 52//31 53//31 41//31 40//31
f 53//32 54//32 42//32 41//32
f 54//33 55//33 43//33 42//33
f 55//34 56//34 44//34 43//34
f 56//35 57//35 45//35 44//35
f 57//36 58//36 46//36 45//36
f 58//37 59//37 47//37 46//37
f 59//38 60//38 48//38 47//38
f 60//39 50//39 28//39 48//39
f 62//40 61//40 49//40 50//40
f 61//41 63//41 51//41 49//41
f 63//42 64//42 52//42 51//42
f 64//43 65//43 53//43 52//43
f 65//44 66//44 54//44 53//44
f 66//45 67//45 55//45 54//45
f 67//46 68//46 56//46 55//46
f 68//47 69//47 57//47 56//47
f 69//48 70//48 58//48 57//48
f 70//49 71//49 59//49 58//49
f 71//50 72//50 60//50 59//50
f 72//51 62//51 50//51 60//51
f 74//52 73//52 61//52 62//52
f 73//53 75//53 63//53 61//53
f 75//54 76//54 64//54 63//54
f 76//55 77//55 65//55 64//55
f 77//56 78//56 66//56 65//56
f 78//57 79//57 67//57 66//57
f 79//58 80//58 68//58 67//58
f 80//59 81//59 69//59 68//59
f 81//60 82//60 70//60 69//60
f 82//61 83//61 71//61 70//61
f 83//62 84//62 72//62 71//62
f 84//63 74//63 62//63 72//63
f 84//64 83//64 82//64 81//64 80//64 79//64 78//64 77//64 76//64 75//64 73//64 74//64
f 88//65 87//65 86//65 85//65
f 85//66 86//66 98//66 97//66 96//66 95//66 94//66 93//66 92//66 91//66 90//66 89//66
f 87//67 99//67 98//67 86//67
f 99//68 100//68 97//68 98//68
f 100//69 101//69 96//69 97//69
f 101//70 102//70 95//70 96//70
f 102//71 103//71 94//71 95//71
f 103//72 104//72 93//72 94//72
f 104//73 105//73 92//73 93//73
f 105//74 106//74 91//74 92//74
f 106//75 107//75 90//75 91//75
f 107//76 108//76 89//76 90//76
f 108//77 88//77 85//77 89//77
f 110//78 109//78 87//78 88//78
f 109//79 111//79 99//79 87//79
f 111//80 112//80 100//80 99//80
f 112//81 113//81 101//81 100//81
f 113//82 114//82 102//82 101//82
f 114//83 115//83 103//83 102//83
f 115//84 116//84 104//84 103//84
f 116//85 117//85 105//85 104//85
f 117//86 118//86 106//86 105//86
f 118//87 119//87 107//87 106//87
f 119//88 120//88 108//88 107//88
f 120//89 110//89 88//89 108//89
f 122//90 121//90 109//90 110//90
f 121//91 123//91 111//91 109//91
f 123//92 124//92 112//92 111//92
f 124//93 125//93 113//93 112//93
f 125//94 126//94 114//94 113//94
f 126//95 127//95 115//95 114//95
f 127//96 128//96 116//96 115//96
f 128//97 129//97 117//97 116//97
f 129//98 130//98 118//98 117//98
f 130//99 131//99 119//99 118//99
f 131//100 132//100 120//100 119//100
f 132//101 122//101 110//101 120//101
f 132//102 131//102 130//102 129//102 128//102 127//102 126//102 125//102 124//102 123//102 121//102 122//102
f 136//103 135//103 134//103 133//103
f 135//104 138//104 137//104 134//104
f 138//105 140//105 139//105 137//105
f 140//106 142//106 141//106 139//106
f 142//107 144//107 143//107 141//107
f 144//108 146//108 145//108 143//108
f 146//109 148//109 147//109 145//109
f 148//110 150//110 149//110 147//110
f 150//111 152//111 151//111 149//111
f 152//112 154//112 153//112 151//112
f 154//113 156//113 155//113 153//113
f 156//114 136//114 133//114 155//114
f 133//115 134//115 137//115 139//115 141//115 143//115 145//115 147//115 149//115 151//115 153//115 155//115
f 156//116 154//116 152//116 150//116 148//116 146//116 144//116 142//116 140//116 138//116 135//116 136//116
